{"title":"Tucker and Dale vs Evil (2010) DivX HQ AC3 DD5.1 (Ext Subs) TBS","uid":6392619,"size":1561837838,"categoryP":"video","categoryS":"movies","magnet":"?xt=urn:btih:c6adfeb66482ff8fa56147cb4b7e8716448cbcc0&amp;dn=Tucker+and+Dale+vs+Evil+%282010%29+DivX+HQ+AC3+DD5.1+%28Ext+Subs%29+TBS&amp;tr=udp%3A%2F%2Ftracker.openbittorrent.com%3A80&amp;tr=udp%3A%2F%2Fopen.demonii.com%3A1337&amp;tr=udp%3A%2F%2Ftracker.coppersurfer.tk%3A6969&amp;tr=udp%3A%2F%2Fexodus.desync.com%3A6969","seeders":0,"leechers":0,"uploader":"Vlinder.","files":-1,"time":1305403084,"description":"Tucker and Dale vs Evil (2010) DivX HQ AC3 DD5.1 (Externe Subs) TBS\n\n\n \t\nCanada\nHorror / Komedie\n86 minuten\n\ngeregisseerd door Eli Craig\nmet Alan Tudyk, Katrina Bowden en Tyler Labine\n\nTwee vrienden zijn op vakantie in de bossen. Dan worden ze plotseling door een groep schoolkinderen, die naast hun hut kampeert, beschuldigd van moord en worden de twee opgejaagd door de groep. Hierdoor loopt hun vakantie totaal uit de hand en zullen ze zichzelf moeten zien te redden in de bossen. De twee redden ÃƒÂ©ÃƒÂ©n van de kinderen van de verdrinkingsdood, maar desondanks blijft de groep het tweetal opjagen.\n\nStoryline\n\nTwo lovable West Virginian hillbillies, are headed to their \\&quot;fixer-upper\\&quot; vacation cabin to drink some beer, do some fishin\\', and have a good time. But when they run into a group of preppy college kids who assume from their looks that they must be in-bred, chainsaw wielding killers, Tucker &amp; Dale\\'s vacation takes a bloody &amp; hilarious turn for the worse. \n\nSOURCE..........: Tucker and Dale vs Evil 2010 DVDRip XVID AC3 HQ Hive-CM8\nSIZE............: 1.45GB\nFORM............: AVI\nVIDEO CODEC.....: XVID\nBITRATE.........: 2004 Kbit/s\nWIDTH &amp; HEIGHT..: 720 X 320\nFRAMES/S........: 25.000 Fps\nAUDIO...........: English\nAUDIO CODE......: AC3\nBITRATE.........: 448kbps\nCHANNELS........: 5\nSAMPLING........: 48.0 kHz\nSubtitles.......: Dutch srt\nCover en label..: Yes meegepost.\nVertaling.......: SRT\nCategory........: Video\nFormat..........: DivX\nSource..........: Retail\nSubtitle........: Dutch subs optional\nLanguage........: English audio\n \t\nGeneral\n\nFormat                           : AVI\nFormat/Info                      : Audio Video Interleave\nFile size                        : 1.45 GiB\nDuration                         : 1h 24mn\nOverall bit rate                 : 2 451 Kbps\nWriting application              : VirtualDubMod 1.5.10.2 (build 2542/release)\nWriting library                  : VirtualDubMod build 2542/release\n\nVideo\nID                               : 0\nFormat                           : MPEG-4 Visual\nFormat profile                   : Advanced Simple@L5\nFormat settings, BVOP            : Yes\nFormat settings, QPel            : No\nFormat settings, GMC             : No warppoints\nFormat settings, Matrix          : Default (H.263)\nMuxing mode                      : Packed bitstream\nCodec ID                         : XVID\nCodec ID/Hint                    : XviD\nDuration                         : 1h 24mn\nBit rate                         : 1 995 Kbps\nWidth                            : 720 pixels\nHeight                           : 320 pixels\nDisplay aspect ratio             : 2.25:1\nFrame rate                       : 25.000 fps\nColor space                      : YUV\nChroma subsampling               : 4:2:0\nBit depth                        : 8 bits\nScan type                        : Progressive\nBits/(Pixel*Frame)               : 0.346\nStream size                      : 1.18 GiB (81%)\nWriting library                  : XviD 62\n\nAudio\nID                               : 1\nFormat                           : AC-3\nFormat/Info                      : Audio Coding 3\nMode extension                   : CM (complete main)\nCodec ID                         : 2000\nDuration                         : 1h 24mn\nBit rate mode                    : Constant\nBit rate                         : 448 Kbps\nChannel(s)                       : 6 channels\nChannel positions                : Front: L C R, Side: L R, LFE\nSampling rate                    : 48.0 KHz\nBit depth                        : 16 bits\nStream size                      : 272 MiB (18%)\nAlignment                        : Split accross interleaves\nInterleave, duration             : 64 ms (1.60 video frames)\nInterleave, preload duration     : 500 ms\n\n &lt;a href=&quot;\nhttp://www.moviemeter.nl/film/61322&quot; rel=&quot;nofollow&quot; target=&quot;_NEW&quot;&gt;\nhttp://www.moviemeter.nl/film/61322&lt;/a&gt;   &lt;a href=&quot;\nhttp://www.imdb.com/title/tt1465522&quot; rel=&quot;nofollow&quot; target=&quot;_NEW&quot;&gt;\nhttp://www.imdb.com/title/tt1465522&lt;/a&gt;","torrent":{"xt":"urn:btih:c6adfeb66482ff8fa56147cb4b7e8716448cbcc0","amp;dn":"Tucker+and+Dale+vs+Evil+%282010%29+DivX+HQ+AC3+DD5.1+%28Ext+Subs%29+TBS","amp;tr":["udp%3A%2F%2Ftracker.openbittorrent.com%3A80","udp%3A%2F%2Fopen.demonii.com%3A1337","udp%3A%2F%2Ftracker.coppersurfer.tk%3A6969","udp%3A%2F%2Fexodus.desync.com%3A6969"],"infoHash":"c6adfeb66482ff8fa56147cb4b7e8716448cbcc0","infoHashBuffer":{"type":"Buffer","data":[198,173,254,182,100,130,255,143,165,97,71,203,75,126,135,22,68,140,188,192]},"announce":[],"urlList":[]}}